<?xml version="1.0" standalone="no"?>
<!DOCTYPE svg PUBLIC "-//W3C//DTD SVG 20010904//EN"
 "http://www.w3.org/TR/2001/REC-SVG-20010904/DTD/svg10.dtd">
<svg version="1.0" xmlns="http://www.w3.org/2000/svg"
 width="500.000000pt" height="500.000000pt" viewBox="0 0 500.000000 500.000000"
 preserveAspectRatio="xMidYMid meet">
<metadata>
Created by potrace 1.11, written by Peter Selinger 2001-2013
</metadata>
<g transform="translate(0.000000,500.000000) scale(0.100000,-0.100000)"
fill="#000000" stroke="none">
<path d="M3220 4983 c-208 -32 -324 -63 -460 -121 -379 -161 -698 -485 -853
-867 -25 -61 -64 -179 -71 -219 -2 -11 -9 -41 -14 -66 -20 -88 -27 -167 -27
-315 1 -176 7 -238 40 -372 152 -628 656 -1094 1300 -1204 129 -22 405 -19
529 5 125 25 280 70 304 89 6 5 12 7 12 4 0 -9 196 90 260 131 249 160 449
384 577 648 43 87 95 221 108 279 45 192 50 240 49 440 0 135 -5 193 -23 280
-86 426 -327 788 -686 1030 -84 56 -285 155 -375 184 -66 21 -203 54 -275 66
-46 7 -357 14 -395 8z"/>
<path d="M799 2836 c-2 -2 -24 -6 -49 -9 -96 -12 -229 -63 -324 -126 -159
-103 -286 -270 -345 -451 -68 -212 -45 -464 60 -660 123 -229 356 -398 604
-438 53 -8 241 -9 285 0 34 6 43 8 105 23 52 13 195 84 253 127 143 105 239
235 301 404 37 102 42 126 47 259 14 394 -238 734 -628 845 -65 19 -296 38
-309 26z"/>
<path d="M2520 1656 c-162 -36 -278 -97 -393 -205 -169 -160 -251 -364 -242
-601 5 -157 44 -279 130 -409 141 -213 395 -350 651 -349 340 1 632 206 747
524 35 97 41 142 41 279 -1 125 -19 210 -67 315 -61 132 -185 271 -308 346
-60 36 -186 86 -249 99 -63 13 -254 13 -310 1z"/>
</g>
</svg>
